<?xml version="1.0" encoding="UTF-8" standalone="no"?>
<svg xmlns="http://www.w3.org/2000/svg" width="100" height="100" viewBox="0 0 100 100">
  <circle cx="50" cy="50" r="50" fill="#000000" />

  <!-- Eye of Horus in gold/amber color with white outline -->
  <g>
    <!-- White outline -->
    <g fill="none" stroke="#FFFFFF" stroke-width="6">
      <!-- Outer eye circle -->
      <ellipse cx="50" cy="50" rx="32" ry="24" />

      <!-- Upper arc -->
      <path d="M26,42 C34,30 66,30 74,42" />

      <!-- Left line -->
      <path d="M18,50 L4,50" />

      <!-- Right line -->
      <path d="M82,50 L96,50" />

      <!-- Bottom left line -->
      <path d="M34,70 L26,86" />

      <!-- Bottom right line -->
      <path d="M66,70 L74,86" />
    </g>

    <!-- Gold elements -->
    <g fill="none" stroke="#D4AF37" stroke-width="4">
      <!-- Outer eye circle -->
      <ellipse cx="50" cy="50" rx="32" ry="24" />

      <!-- Upper arc -->
      <path d="M26,42 C34,30 66,30 74,42" />

      <!-- Center eye pupil -->
      <circle cx="50" cy="50" r="8" fill="#D4AF37" stroke="none" />

      <!-- Left line -->
      <path d="M18,50 L4,50" />

      <!-- Right line -->
      <path d="M82,50 L96,50" />

      <!-- Bottom left line -->
      <path d="M34,70 L26,86" />

      <!-- Bottom right line -->
      <path d="M66,70 L74,86" />
    </g>
  </g>
</svg>
